<?xml version="1.0" encoding="utf-8"?>
<!-- Generator: Adobe Illustrator 17.1.0, SVG Export Plug-In . SVG Version: 6.00 Build 0)  -->
<!DOCTYPE svg PUBLIC "-//W3C//DTD SVG 1.1//EN" "http://www.w3.org/Graphics/SVG/1.1/DTD/svg11.dtd">
<svg version="1.1" id="Layer_1" xmlns="http://www.w3.org/2000/svg" xmlns:xlink="http://www.w3.org/1999/xlink" x="0px" y="0px"
	 viewBox="0 0 612 792" enable-background="new 0 0 612 792" xml:space="preserve">
<title>heart</title>
<path fill="#999999" d="M440.5,120.1C440.5,120.1,440.5,120.1,440.5,120.1c-53.5,0-103.6,25.9-134.5,69.5
	c-30.9-43.6-81-69.6-134.5-69.5C76.8,120.1,0,196.9,0,291.7c0,134.5,306,380.2,306,380.2s306-245.7,306-380.2
	C612,196.9,535.2,120.1,440.5,120.1z M135.1,269.6c0-0.1-0.1-0.2-0.1-0.2c-0.1-0.5-0.2-1-0.3-1.5c0.3,0.5,0.6,0.9,1,1.4
	c0,0.1,0,0.3,0.1,0.4C135.5,269.6,135.3,269.6,135.1,269.6z M245.4,492.2c0.6,1,1.3,2.1,1.9,3.1c0.1,0.3,0.1,0.5,0.2,0.8
	C246.7,494.9,246,493.6,245.4,492.2z M530.5,252.6c-0.1,6.2-0.7,12.4-1.2,18.4C529.6,264.8,530,258.7,530.5,252.6z M453.4,339.6
	c-0.4,0.3-0.7,0.6-1.1,0.9c0.4-0.6,0.9-1.1,1.3-1.7C453.6,339.1,453.5,339.3,453.4,339.6z M520.2,351.1c0.1-0.2,0.2-0.4,0.3-0.6
	c0.2,0,0.5-0.1,0.7-0.1c-0.4,0.8-0.9,1.5-1.3,2.3C519.9,352.1,520,351.6,520.2,351.1z"/>
</svg>
