<svg xmlns="http://www.w3.org/2000/svg" viewBox="0 0 45.6 45.4"><title>instagram</title><path d="M15.2,22.7a7.6,7.6,0,1,1,7.6,7.6h0a7.6,7.6,0,0,1-7.6-7.6h0m-4.1,0A11.7,11.7,0,1,0,22.9,11h-.1A11.7,11.7,0,0,0,11.1,22.7M32.2,10.6A2.7,2.7,0,1,0,35,7.9h0a2.7,2.7,0,0,0-2.7,2.7M13.6,41.2a13,13,0,0,1-4.2-.8,7.4,7.4,0,0,1-2.6-1.7A7.1,7.1,0,0,1,5,36.1a12.5,12.5,0,0,1-.8-4.2c-.1-2.4-.1-3.1-.1-9.2s0-6.8.1-9.2A12.5,12.5,0,0,1,5,9.3,7.6,7.6,0,0,1,9.3,5a12.4,12.4,0,0,1,4.2-.8H32a12.4,12.4,0,0,1,4.2.8,7.6,7.6,0,0,1,4.3,4.3,12.5,12.5,0,0,1,.8,4.2c.1,2.4.1,3.1.1,9.2s0,6.8-.1,9.2a12.5,12.5,0,0,1-.8,4.2,7.1,7.1,0,0,1-1.7,2.6,7.4,7.4,0,0,1-2.6,1.7,12.9,12.9,0,0,1-4.2.8H13.6M13.4.1a16.6,16.6,0,0,0-5.5,1A11.6,11.6,0,0,0,1.2,7.8,16.6,16.6,0,0,0,.1,13.3C0,15.8,0,16.5,0,22.7S0,29.6.1,32a16.5,16.5,0,0,0,1.1,5.5,11,11,0,0,0,2.6,4,11.2,11.2,0,0,0,4,2.6,17.1,17.1,0,0,0,5.5,1.1H32.2a17.1,17.1,0,0,0,5.5-1.1,11.2,11.2,0,0,0,4-2.6,11.1,11.1,0,0,0,2.6-4A16.5,16.5,0,0,0,45.4,32c.1-2.4.1-3.2.1-9.4s0-6.9-.1-9.3a16.6,16.6,0,0,0-1.1-5.5,11.7,11.7,0,0,0-6.7-6.6,16.6,16.6,0,0,0-5.5-1H13.4" transform="translate(0)"/></svg>