<?xml version="1.0" encoding="utf-8"?>
<!-- Generator: Adobe Illustrator 19.0.0, SVG Export Plug-In . SVG Version: 6.00 Build 0)  -->
<svg version="1.1" id="Слой_1" xmlns="http://www.w3.org/2000/svg" xmlns:xlink="http://www.w3.org/1999/xlink" x="0px" y="0px"
	 viewBox="-231 323.7 147.3 147.3" style="enable-background:new -231 323.7 147.3 147.3;" xml:space="preserve">
<style type="text/css">
	.st0{fill:#CC0000;}
</style>
<title>ogg_logo_new</title>
<path class="st0" d="M-157.4,323.8c-40.6,0-73.6,33-73.6,73.6s33,73.6,73.6,73.6s73.6-33,73.6-73.6l0,0
	C-83.9,356.8-116.9,323.8-157.4,323.8z M-132.9,440.5c-19.4,14.8-46.7,10.1-61.9-10.5c-12-16.2-13-37-2.6-54.6
	c15.3-26,49.1-36.9,76.8-24.9l2.5,1.3l-23-0.8v0.7l6.1,1v1.1c-2.2,0.3-4.5,1-6.7,0.8c-19.6-1.7-44.8,13.7-51.2,34.2
	c-7,22.4,7.5,46.8,30.3,50.3c16,2.4,32.2-9.2,34-25.1c1-9-3.2-16-10.5-21s-12.9-4.2-19.4-0.5s-8.5,8.5-7.4,15.2
	c0.3-0.6,0.6-1.3,0.8-2c1.3-6.8,5-10.9,10.9-11.9c6.4-1.3,12.8,1.7,16,7.3c6,10.1-0.4,23.3-12.7,25.7c-9.2,1.8-16.4-1.8-21.8-9.1
	s-5.3-17.4-0.8-24.6c11.7-18.8,38-18.2,50.4,1.2C-113.7,409.3-117.9,428.9-132.9,440.5z"/>
<path class="st0" d="M-152.2,419.8c6.9-0.7,12-6.9,11.3-13.8c-0.6-6.1-5.5-10.8-11.6-11.3c-7.9,0.3-12.2,6.1-12.6,12.6
	C-165.4,413.8-158.9,419.9-152.2,419.8z M-151.9,402.3c2.8,0.1,5,2.5,4.9,5.3v0.1c-0.2,2.8-2.6,4.8-5.4,4.6
	c-2.8-0.2-4.8-2.6-4.6-5.4C-156.7,404.3-154.4,402.3-151.9,402.3z"/>
</svg>
