<?xml version="1.0" encoding="utf-8"?>
<!-- Generator: Adobe Illustrator 15.0.0, SVG Export Plug-In . SVG Version: 6.00 Build 0)  -->
<!DOCTYPE svg PUBLIC "-//W3C//DTD SVG 1.1//EN" "http://www.w3.org/Graphics/SVG/1.1/DTD/svg11.dtd">
<svg version="1.1" id="Слой_1" xmlns="http://www.w3.org/2000/svg" xmlns:xlink="http://www.w3.org/1999/xlink" x="0px" y="0px"
	 width="595.281px" height="841.891px" viewBox="0 0 595.281 841.891" enable-background="new 0 0 595.281 841.891"
	 xml:space="preserve">
<path fill="#D9D9D4" d="M577.4,639.158L464.546,532.334c32.248-45.123,48.799-99.579,47.115-155.015
	c-1.939-67.186-30.666-130.806-79.777-176.693c-49.428-46.413-113.391-69.785-181.359-68.753
	c-67.192,1.952-130.813,30.692-176.693,79.82C27.639,260.534,2.898,325.821,5.12,393.01c2.106,67.556,30.433,130.321,79.82,176.734
	c49.386,46.413,114.588,70.445,181.317,68.712c50.584-1.481,99.539-18.222,140.438-48.024l114.547,108.477
	c7.73,7.338,18.043,11.329,28.699,11.108h0.66c10.877-0.298,21.182-4.938,28.615-12.884
	C594.685,680.607,593.873,654.683,577.4,639.158z M141.057,509.994c-33.23-31.044-52.663-74.088-53.97-119.544
	c-1.445-45.67,15.072-89.192,46.455-122.599c31.383-33.406,73.874-52.566,119.543-54.012l1.899-0.041
	c44.789-0.972,88.156,15.749,120.699,46.537c33.262,31.025,52.713,74.078,54.012,119.544
	c2.826,94.569-71.436,173.578-165.998,176.61C218.217,558.178,173.986,541.41,141.057,509.994L141.057,509.994z"/>
</svg>
