<svg xmlns="http://www.w3.org/2000/svg" viewBox="0 0 145.2 31.8"><title>shop_logo</title><polygon points="0 6 11 6 1.9 24.8 6.7 24.8 16 5.6 16 1.9 0 1.9 0 6" style="fill:#c00"/><path d="M33.9,8.3A4.6,4.6,0,0,0,32.2,7a5.9,5.9,0,0,0-2.4-.4l-1.7.2-1.4.5-1.2.9L24.5,9.4l.2-3.2V0H20.4V24.8h4.3V13.5a15.2,15.2,0,0,1,2.1-2.4,3.1,3.1,0,0,1,2.1-.9q2.2,0,2.2,2.9V24.8h4.3v-12a9,9,0,0,0-.3-2.6A5.4,5.4,0,0,0,33.9,8.3Z" style="fill:#c00"/><path d="M54.3,14.3a5.2,5.2,0,0,0-1.5-1.1,7.2,7.2,0,0,0-2-.6,6,6,0,0,0,2.7-2,5.5,5.5,0,0,0,1-3.4,5.7,5.7,0,0,0-.5-2.4A4.8,4.8,0,0,0,52.5,3a7.1,7.1,0,0,0-2.4-1.2,12.3,12.3,0,0,0-3.3-.4H45.2l-1.5.2L42.3,2l-1.5.4V6l2.8-.7,2.7-.3a4.5,4.5,0,0,1,2.8.7A2.6,2.6,0,0,1,50,7.9a3.8,3.8,0,0,1-.2,1.3,2.6,2.6,0,0,1-.8,1.1,4,4,0,0,1-1.4.7,8,8,0,0,1-2.3.3H42.9v3.3h2.5l2.5.2a5.6,5.6,0,0,1,1.7.7,2.7,2.7,0,0,1,1.4,2.4,3.6,3.6,0,0,1-.3,1.5,2.9,2.9,0,0,1-1,1.2,5.2,5.2,0,0,1-1.7.7l-2.5.2H42.7l-2.5-.3v3.7h4.9a19,19,0,0,0,4.7-.5,9.6,9.6,0,0,0,3.3-1.5A6,6,0,0,0,55,20.9a7.2,7.2,0,0,0,.6-3.1,5.3,5.3,0,0,0-.3-2A4.7,4.7,0,0,0,54.3,14.3Z" style="fill:#c00"/><path d="M82.3,12a8.1,8.1,0,0,0-2.8-1.1,17.3,17.3,0,0,0-3.4-.3H74.5V5.9h9.2v-4H70.5V14.1H75a7.4,7.4,0,0,1,4.1.9,3.2,3.2,0,0,1,1.3,2.8A3.3,3.3,0,0,1,79,20.6a6.7,6.7,0,0,1-4,1H72.4L70.1,21v3.7l1.1.2h3.6a15.3,15.3,0,0,0,4-.5,10,10,0,0,0,3.2-1.5,7.1,7.1,0,0,0,2.1-2.4,6.8,6.8,0,0,0,.8-3.3,7,7,0,0,0-.7-3.4A5.7,5.7,0,0,0,82.3,12Z" style="fill:#c00"/><path d="M103.1,8.3A4.6,4.6,0,0,0,101.4,7,5.9,5.9,0,0,0,99,6.6l-1.7.2-1.4.5-1.2.9L93.6,9.4l.2-3.2V0H89.5V24.8h4.3V13.5a15.2,15.2,0,0,1,2.1-2.4,3.1,3.1,0,0,1,2.1-.9q2.2,0,2.2,2.9V24.8h4.3v-12a9,9,0,0,0-.3-2.6A5.4,5.4,0,0,0,103.1,8.3Z" style="fill:#c00"/><path d="M123.3,4.2a6.9,6.9,0,0,0-2.7-2.1,9,9,0,0,0-3.5-.7,9.1,9.1,0,0,0-3.9.8,7.8,7.8,0,0,0-2.9,2.3,11,11,0,0,0-1.8,3.8,18.8,18.8,0,0,0-.6,5.1,19.3,19.3,0,0,0,.7,5.3,10.4,10.4,0,0,0,1.8,3.7,7,7,0,0,0,2.8,2.1,9.7,9.7,0,0,0,7.4-.1,7.9,7.9,0,0,0,2.9-2.3,10.8,10.8,0,0,0,1.8-3.8,19.1,19.1,0,0,0,.6-5.1,19.3,19.3,0,0,0-.7-5.4A10.4,10.4,0,0,0,123.3,4.2ZM112.2,14v-.7a16.7,16.7,0,0,1,.4-3.7,8.9,8.9,0,0,1,1-2.6A4.3,4.3,0,0,1,115,5.5a3.5,3.5,0,0,1,1.8-.5,3.6,3.6,0,0,1,2.4.8,5.7,5.7,0,0,1,1.6,2.6l-8.6,6.2A5.6,5.6,0,0,1,112.2,14Zm8.9,3.1a8.7,8.7,0,0,1-1,2.6,4.4,4.4,0,0,1-1.5,1.5,3.5,3.5,0,0,1-1.8.5,3.7,3.7,0,0,1-2.4-.8,5.3,5.3,0,0,1-1.6-2.5l8.6-6.2q0,.3,0,.6t0,.6A17.1,17.1,0,0,1,121.1,17.1Z" style="fill:#c00"/><path d="M144.8,11.9A8.6,8.6,0,0,0,143.5,9a5.7,5.7,0,0,0-2.1-1.8,6.1,6.1,0,0,0-2.8-.6l-1.8.2-1.5.6-1.3,1-1.1,1.2V7h-3.7V31.8h4.3v-7l1.2.2H136a11.4,11.4,0,0,0,3.7-.6,7.8,7.8,0,0,0,2.9-1.8,8.1,8.1,0,0,0,1.9-3,11.8,11.8,0,0,0,.7-4.3A14.6,14.6,0,0,0,144.8,11.9Zm-4.4,6.4a5.6,5.6,0,0,1-.9,1.9,4.1,4.1,0,0,1-1.4,1.2,4.1,4.1,0,0,1-1.9.4h-1.5l-1.3-.3V13.5a15.2,15.2,0,0,1,2.1-2.4,3.1,3.1,0,0,1,2.1-.9,2.7,2.7,0,0,1,1.3.3,2.5,2.5,0,0,1,1,1,5.5,5.5,0,0,1,.6,1.7,12.8,12.8,0,0,1,.2,2.5A9.2,9.2,0,0,1,140.4,18.3Z" style="fill:#c00"/></svg>