<?xml version="1.0" encoding="utf-8"?>
<!-- Generator: Adobe Illustrator 19.0.0, SVG Export Plug-In . SVG Version: 6.00 Build 0)  -->
<svg version="1.1" id="Capa_1" xmlns="http://www.w3.org/2000/svg" xmlns:xlink="http://www.w3.org/1999/xlink" x="0px" y="0px"
	 viewBox="-272 365 65.4 65" style="enable-background:new -272 365 65.4 65;" xml:space="preserve">
<style type="text/css">
	.st0{fill:#EDC951;}
</style>
<g>
	<g id="group-2svg">
		<path id="path-1_10_" class="st0" d="M-206.6,399.4c0,16.6-13.5,30.1-30.1,30.1s-30.1-13.5-30.1-30.1s13.5-30.1,30.1-30.1
			S-206.6,382.8-206.6,399.4z"/>
		<path id="path-2_10_" d="M-226.4,388.3c0,2-1.6,3.6-3.6,3.6c-2,0-3.6-1.6-3.6-3.6s1.6-3.6,3.6-3.6
			C-228,384.7-226.4,386.3-226.4,388.3z"/>
		<path id="path-3_10_" d="M-247.3,388.3c0,2-1.6,3.6-3.6,3.6c-2,0-3.6-1.6-3.6-3.6s1.6-3.6,3.6-3.6
			C-248.9,384.7-247.3,386.3-247.3,388.3z"/>
		<path id="path-4_10_" d="M-237.6,415.3h-5.1c-6.4,0-11.6-5.1-11.6-11.5c0-0.8,0.7-1.5,1.5-1.5c0.8,0,1.5,0.7,1.5,1.5
			c0,4.7,3.8,8.5,8.6,8.5h5.1c4.8,0,8.6-3.7,8.6-8.3c0-0.8,0.7-1.5,1.5-1.5c0.8,0,1.5,0.7,1.5,1.5
			C-226,410.3-231.1,415.3-237.6,415.3z"/>
		<path id="path-5_10_" d="M-240.4,428.2c-17.4,0-31.6-14.2-31.6-31.6c0-17.4,14.2-31.6,31.6-31.6c17.4,0,31.6,14.2,31.6,31.6
			C-208.8,414-223,428.2-240.4,428.2z M-240.4,368c-15.8,0-28.6,12.8-28.6,28.6c0,15.8,12.8,28.6,28.6,28.6
			c15.8,0,28.6-12.8,28.6-28.6C-211.8,380.9-224.6,368-240.4,368z"/>
	</g>
</g>
</svg>
